/* XPM */
static char * bitcoin32_xpm[] = {
"32 32 390 2",
"  	c None",
". 	c #F59191",
"+ 	c #F4C0C0",
"@ 	c #F4BABA",
"# 	c #F75D5D",
"$ 	c #FA1212",
"% 	c #FA1C1C",
"& 	c #F76868",
"* 	c #F68B8B",
"= 	c #F91D1D",
"- 	c #F76161",
"; 	c #F4BEBE",
"> 	c #F3DBDB",
", 	c #F69B9B",
"' 	c #FA1E1E",
") 	c #FA0808",
"! 	c #FA0909",
"~ 	c #F93030",
"{ 	c #F3D9D9",
"] 	c #F2FCFC",
"^ 	c #F2EAEA",
"/ 	c #F67F7F",
"( 	c #F93535",
"_ 	c #F3DFDF",
": 	c #F77676",
"< 	c #F92222",
"[ 	c #FA0101",
"} 	c #F92424",
"| 	c #F4ADAD",
"1 	c #F4C4C4",
"2 	c #F5A7A7",
"3 	c #F68282",
"4 	c #F84A4A",
"5 	c #F77575",
"6 	c #F1FFFF",
"7 	c #F67A7A",
"8 	c #FA0F0F",
"9 	c #FA1717",
"0 	c #F68E8E",
"a 	c #FA1919",
"b 	c #F4B9B9",
"c 	c #F2F8F8",
"d 	c #F2F5F5",
"e 	c #F2F7F7",
"f 	c #F77474",
"g 	c #FA1B1B",
"h 	c #F93B3B",
"i 	c #F85252",
"j 	c #F68585",
"k 	c #F76C6C",
"l 	c #FA0A0A",
"m 	c #FA0303",
"n 	c #F94242",
"o 	c #F3D1D1",
"p 	c #F84949",
"q 	c #FA0D0D",
"r 	c #FA0606",
"s 	c #F5AAAA",
"t 	c #F2F3F3",
"u 	c #F2F1F1",
"v 	c #F3D5D5",
"w 	c #F92626",
"x 	c #FA0B0B",
"y 	c #FD0A0A",
"z 	c #FF0C0C",
"A 	c #F95B5B",
"B 	c #F4BBBB",
"C 	c #F68484",
"D 	c #F92929",
"E 	c #F67878",
"F 	c #F2E7E7",
"G 	c #F3E5E5",
"H 	c #F85C5C",
"I 	c #FA0202",
"J 	c #F67474",
"K 	c #F2FDFD",
"L 	c #F77272",
"M 	c #FA1111",
"N 	c #FA0E0E",
"O 	c #D00D0C",
"P 	c #8F0100",
"Q 	c #E16F6F",
"R 	c #F3EAEA",
"S 	c #F2EFEF",
"T 	c #F2E9E9",
"U 	c #F4B2B2",
"V 	c #F5AEAE",
"W 	c #F5ADAD",
"X 	c #F85050",
"Y 	c #F3E8E8",
"Z 	c #F59999",
"` 	c #F76D6D",
" .	c #F5A8A8",
"..	c #F3E0E0",
"+.	c #F2E5E5",
"@.	c #F2F2F2",
"#.	c #F83A3A",
"$.	c #FA0C0C",
"%.	c #E40D0D",
"&.	c #3B0604",
"*.	c #000000",
"=.	c #766B69",
"-.	c #EDEAEA",
";.	c #F3CFCF",
">.	c #F92D2D",
",.	c #F84F4F",
"'.	c #F4D0D0",
").	c #F2F6F6",
"!.	c #FB0000",
"~.	c #FA1010",
"{.	c #F93737",
"].	c #F76363",
"^.	c #F5A4A4",
"/.	c #F92F2F",
"(.	c #FA1414",
"_.	c #F80C0C",
":.	c #750907",
"<.	c #000300",
"[.	c #686B69",
"}.	c #EBEAEA",
"|.	c #F2E6E6",
"1.	c #F75757",
"2.	c #FA0000",
"3.	c #F93131",
"4.	c #F67E7E",
"5.	c #F2EDED",
"6.	c #F4C8C8",
"7.	c #F76F6F",
"8.	c #F3BBBB",
"9.	c #FF9D9D",
"0.	c #9F2C2B",
"a.	c #000200",
"b.	c #000400",
"c.	c #696F6C",
"d.	c #EBEEEE",
"e.	c #FA0505",
"f.	c #F5A1A1",
"g.	c #FA1616",
"h.	c #F92B2B",
"i.	c #F3C7C7",
"j.	c #F2F4F4",
"k.	c #F68181",
"l.	c #F92525",
"m.	c #F4B7B7",
"n.	c #F7FFFF",
"o.	c #CED6D5",
"p.	c #0A1612",
"q.	c #010400",
"r.	c #6B4542",
"s.	c #ECC7C7",
"t.	c #F1FDFD",
"u.	c #F93C3C",
"v.	c #F92828",
"w.	c #F84646",
"x.	c #F4F2F2",
"y.	c #F7F7F7",
"z.	c #2C2E2B",
"A.	c #5A5B59",
"B.	c #6D0D0B",
"C.	c #F22323",
"D.	c #F93636",
"E.	c #F3D0D0",
"F.	c #F59B9B",
"G.	c #FA1515",
"H.	c #F3DCDC",
"I.	c #F59696",
"J.	c #F2F9F9",
"K.	c #F4AEAE",
"L.	c #F77777",
"M.	c #F9FFFF",
"N.	c #5C5E5B",
"O.	c #3F413E",
"P.	c #D2D2D1",
"Q.	c #6D0906",
"R.	c #F30E0E",
"S.	c #F85858",
"T.	c #F77373",
"U.	c #F4AFAF",
"V.	c #F4C1C1",
"W.	c #F76262",
"X.	c #F5A6A6",
"Y.	c #F3D7D7",
"Z.	c #F86161",
"`.	c #FA1A1A",
" +	c #F8B1B1",
".+	c #AAB1B0",
"++	c #D1D0D0",
"@+	c #D3D3D2",
"#+	c #5E0805",
"$+	c #F10E0E",
"%+	c #F2F0F0",
"&+	c #F5A3A3",
"*+	c #F4A8A8",
"=+	c #F3E6E6",
"-+	c #F3D3D3",
";+	c #F4C6C6",
">+	c #FB0808",
",+	c #F84040",
"'+	c #F68787",
")+	c #F84C4C",
"!+	c #FA2727",
"~+	c #D5D3D2",
"{+	c #383B38",
"]+	c #8F908E",
"^+	c #F3F2F2",
"/+	c #530705",
"(+	c #F00E0D",
"_+	c #F77171",
":+	c #F2EBEB",
"<+	c #F85454",
"[+	c #F59E9E",
"}+	c #F92121",
"|+	c #F67575",
"1+	c #F85151",
"2+	c #F53C3C",
"3+	c #657977",
"4+	c #525B59",
"5+	c #E7EBEB",
"6+	c #D5D5D4",
"7+	c #540705",
"8+	c #F68C8C",
"9+	c #F4A9A9",
"0+	c #F2ECEC",
"a+	c #F67C7C",
"b+	c #FA0404",
"c+	c #F7E4E4",
"d+	c #AD2221",
"e+	c #17120F",
"f+	c #B04B4A",
"g+	c #F5ACAC",
"h+	c #EFE1E0",
"i+	c #CFCECE",
"j+	c #F59F9F",
"k+	c #F5A5A5",
"l+	c #F5F4F4",
"m+	c #D5CFCE",
"n+	c #0E0000",
"o+	c #0C0703",
"p+	c #11110D",
"q+	c #111A16",
"r+	c #0E1915",
"s+	c #540603",
"t+	c #F00C0B",
"u+	c #FA1F1F",
"v+	c #F5B1B1",
"w+	c #F59898",
"x+	c #F3DDDD",
"y+	c #F67979",
"z+	c #3C3E3B",
"A+	c #260300",
"B+	c #A80B0A",
"C+	c #9E0B09",
"D+	c #9D0B09",
"E+	c #531D1A",
"F+	c #EF3030",
"G+	c #F93333",
"H+	c #F76767",
"I+	c #F69292",
"J+	c #F67272",
"K+	c #F3C9C9",
"L+	c #F8F7F7",
"M+	c #747775",
"N+	c #190300",
"O+	c #E70D0D",
"P+	c #FF0E0E",
"Q+	c #525754",
"R+	c #E8F3F3",
"S+	c #F4B4B4",
"T+	c #F2E8E8",
"U+	c #F83F3F",
"V+	c #F76464",
"W+	c #F92C2C",
"X+	c #FAF9F9",
"Y+	c #ACADAC",
"Z+	c #09110D",
"`+	c #A10B09",
" @	c #F50E0E",
".@	c #4B4C4A",
"+@	c #E7E6E6",
"@@	c #F59494",
"#@	c #FB0101",
"$@	c #F76969",
"%@	c #F84343",
"&@	c #F93838",
"*@	c #F3C4C4",
"=@	c #F58D8D",
"-@	c #F68080",
";@	c #F4CBCB",
">@	c #F8F4F5",
",@	c #D6D8D8",
"'@	c #272C29",
")@	c #72615F",
"!@	c #FC1010",
"~@	c #FB0E0E",
"{@	c #E10E0D",
"]@	c #E4E3E3",
"^@	c #F3E2E2",
"/@	c #F4BFBF",
"(@	c #FF2F2F",
"_@	c #E24A49",
":@	c #483D3A",
"<@	c #B47F7E",
"[@	c #FF0F0F",
"}@	c #840908",
"|@	c #000100",
"1@	c #141613",
"2@	c #EAE9E9",
"3@	c #F4CDCD",
"4@	c #F5B5B5",
"5@	c #FC2C2C",
"6@	c #9C0807",
"7@	c #1F0501",
"8@	c #1C0F0B",
"9@	c #AC3735",
"0@	c #FC2525",
"a@	c #FE0C0C",
"b@	c #970A08",
"c@	c #080200",
"d@	c #676866",
"e@	c #F5F2F2",
"f@	c #FBFFFF",
"g@	c #6A2E2B",
"h@	c #610705",
"i@	c #640806",
"j@	c #640503",
"k@	c #622C2A",
"l@	c #5E605E",
"m@	c #8F9391",
"n@	c #FCE2E2",
"o@	c #F58585",
"p@	c #863D3B",
"q@	c #5F1412",
"r@	c #624644",
"s@	c #61615F",
"t@	c #616260",
"u@	c #5F615F",
"v@	c #605452",
"w@	c #FF2424",
"x@	c #F75656",
"y@	c #F1FCFC",
"z@	c #FF8686",
"A@	c #FF0909",
"B@	c #FF0E0F",
"C@	c #FF0404",
"D@	c #FCFAFA",
"E@	c #F9F7F8",
"F@	c #F1F2F2",
"G@	c #F9FEFE",
"H@	c #FCFFFF",
"I@	c #FF5E5E",
"J@	c #FF8080",
"K@	c #FEBBBB",
"L@	c #FDDFDF",
"M@	c #FDE5E5",
"N@	c #FCF4F4",
"O@	c #FF8B8B",
"P@	c #FA0707",
"Q@	c #F83E3E",
"R@	c #F2FAFA",
"S@	c #F5A0A0",
"T@	c #FB0202",
"U@	c #F69595",
"V@	c #F75F5F",
"W@	c #F69898",
"X@	c #F3E3E3",
"Y@	c #F84B4B",
"Z@	c #F93D3D",
"`@	c #F5B6B6",
" #	c #F4B6B6",
".#	c #F2FBFB",
"+#	c #F83B3B",
"@#	c #F1FEFE",
"##	c #F68888",
"$#	c #F59D9D",
"%#	c #F92727",
"&#	c #F5B2B2",
"*#	c #F93A3A",
"=#	c #F94848",
"-#	c #F75050",
";#	c #F3D8D8",
">#	c #F86262",
",#	c #F66C6C",
"'#	c #F93434",
")#	c #FA1313",
"!#	c #F3D2D2",
"~#	c #F75B5B",
"{#	c #F4C9C9",
"]#	c #F59090",
"^#	c #F75C5C",
"/#	c #F85555",
"                        . + @ # $ % & *                         ",
"                  = - ; > , ' ) ! ~ { ] ^ / (                   ",
"              _ : < [ } | 1 2 3 4 5 { ^ 6 7 8 9 0               ",
"            _ # 8 ) a b c d e 6 f g h i j k l m n o             ",
"          e p l q r s t u u d v w q x y z A B C D E F           ",
"        G H ) x I J ^ u u u K L M N N O P Q R S T U V W         ",
"      x X Y b Z `  ...+.^ @.> #.$.N %.&.*.=.-.u t ;.>.,.>.      ",
"    9 g '.@.).t : !.~.{.].^.0 /.(._.:.<.*.[.}.u @.|.1.2.3.1     ",
"    N 4.5.u @.6.' $.q ! r [ 7.8.9.0.a.b.*.c.d.u u ).& ) e.f.    ",
"  g.h.i.j.u 5.k.m N N N q l.m.n.o.p.<.q.*.r.s.t.] 6 / q $.u.6   ",
"  8 - u u u F v.l N N N $.w.x.y.z.A.*.q.<.B.C.D.E E.F.G.q 9 H.  ",
"  G.I.J.u @.K.I N N N N $ L.M.N.O.P.*.q.b.Q.R.N 8 x S.T.M $ U.d ",
"U V.W.X.Y.|.Z.r q q N N `. +.+z.++@+*.q.b.#+$+N N r k %+5.&+*+=+",
"-+;+e.2.>+,+'+)+/.g ! ! !+~+{+]+^+@+*.q.b./+(+N N r _+:+@.).X.<+",
"..[+2.N x }+6 ).6.^.|+1+2+3+4+5+y.6+*.q.b.7+(+N N r 8+d u %+9+!.",
"0+a+b+N ! <+c @.d c @.c+d+e+f+g+h+i+*.q.b.7+(+N q M j+).u %+k+2.",
":+E b+N r k.).u u u l+m+n+<.o+p+q+r+<.q.b.s+t+N q u+v+d u S w+[ ",
"x+y+b+N I U j.u u ^+^+z+A+B+C+C+C+D+b.q.a.E+F+N q G+6.j.u 5.H+M ",
"I+J+r $.[ K+@.u u L+M+N+O+P+P+P+P+P+<.q.*.Q+R+e S+'+1 ..T+0+U+$ ",
"2.D V+W+!.v ).@.X+Y+Z+`+P+N N N N  @<.q.*..@+@@.e @@#@u.$@X.<+%@",
"  &@j.*@=@-@;@>@,@'@)@!@N N N N ~@{@<.q.*.z.]@u ^@1+r ! m ,.:+/@",
"  ~ { c 6 9 (@_@:@*.<@z $.N N N [@}@b.q.|@1@2@u 3@~.q N b+4@).  ",
"  } j+c 6 5@6@7@b.a.8@9@0@#@>+a@b@c@*.*.*.*.d@e@7 b+N x h.t T+  ",
"    V+j.f@g@h@i@i@j@k@l@m@n@o@p@q@r@s@s@t@t@u@v@w@$.N I K.@.    ",
"    x@+ y@z@A@B@B@C@z@D@E@F@c G@H@I@J@K@L@M@N@O@[ x P@Q@0+H.    ",
"      g+U m.m x N [ j+%+u u u R@S@P@b+T@9 G+U@a+V@,.G+W@X@      ",
"        ,.Y@Z@>.T@!.`@u u u @.e ,+N N N l q  #.#] ^ 7.+#        ",
"          D )+_ 2 X _ @#e t J.K.a N N q P@##S u t $#`.          ",
"            %#&#c J.*#=#&+H.c X ! q N ) V++.u j.k+M             ",
"              -#;#6 )+q l ) >#j+,#'#)#X ^@S d 4.!.              ",
"                  !#H+} `.'#1 K ] 0+, '#~#$#{#                  ",
"                      ]#].^#> T+I./#9 <+4.                      "};
