/* XPM */
static char * bitcoin16_xpm[] = {
"16 16 186 2",
"  	c None",
". 	c #F58B8B",
"+ 	c #F4BDBD",
"@ 	c #F85757",
"# 	c #F92C2C",
"$ 	c #F59E9E",
"% 	c #F5A1A1",
"& 	c #F59F9F",
"* 	c #F92D2D",
"= 	c #F83D3D",
"- 	c #F3D1D1",
"; 	c #F5ADAD",
"> 	c #F76E6E",
", 	c #F7A5A5",
"' 	c #F89C9C",
") 	c #FA2020",
"! 	c #F68282",
"~ 	c #F84949",
"{ 	c #F93030",
"] 	c #F3E6E6",
"^ 	c #F2FEFE",
"/ 	c #F3CECE",
"( 	c #FE2121",
"_ 	c #DD0000",
": 	c #CD3A39",
"< 	c #F4A8A8",
"[ 	c #F68989",
"} 	c #F5A2A2",
"| 	c #F93D3D",
"1 	c #F5A8A8",
"2 	c #F4BABA",
"3 	c #F84F4F",
"4 	c #F67474",
"5 	c #F59999",
"6 	c #F87D7D",
"7 	c #F40808",
"8 	c #5E0100",
"9 	c #4D3B38",
"0 	c #F0F7F7",
"a 	c #F2E8E8",
"b 	c #F84E4E",
"c 	c #F85151",
"d 	c #F85252",
"e 	c #F2FDFD",
"f 	c #F4B4B4",
"g 	c #F91E1E",
"h 	c #FA0E0E",
"i 	c #FA2222",
"j 	c #F8B7B7",
"k 	c #947675",
"l 	c #000000",
"m 	c #352D29",
"n 	c #F0EEEE",
"o 	c #F2F2F2",
"p 	c #F85656",
"q 	c #F84A4A",
"r 	c #FA1B1B",
"s 	c #F2FFFF",
"t 	c #F76767",
"u 	c #FA0C0C",
"v 	c #FA2C2C",
"w 	c #CCD7D6",
"x 	c #4D504D",
"y 	c #151D1A",
"z 	c #380703",
"A 	c #F81616",
"B 	c #F85D5D",
"C 	c #F83535",
"D 	c #F5A3A3",
"E 	c #F3CCCC",
"F 	c #F84444",
"G 	c #F84848",
"H 	c #FA1919",
"I 	c #FA1212",
"J 	c #EB6363",
"K 	c #869290",
"L 	c #9D9D9C",
"M 	c #1D2421",
"N 	c #2B0401",
"O 	c #F80E0E",
"P 	c #FA1313",
"Q 	c #F59696",
"R 	c #F2E4E4",
"S 	c #F4AAAA",
"T 	c #F4C6C6",
"U 	c #FB0000",
"V 	c #F3DBDB",
"W 	c #F99191",
"X 	c #8F4947",
"Y 	c #767572",
"Z 	c #AAADAC",
"` 	c #290401",
" .	c #F80A0A",
"..	c #FA1818",
"+.	c #F4AEAE",
"@.	c #F4B9B9",
"#.	c #F75858",
"$.	c #F2EBEB",
"%.	c #FAFEFE",
"&.	c #B2C0BE",
"*.	c #4F0000",
"=.	c #8D1715",
"-.	c #6F2826",
";.	c #0F0A06",
">.	c #2A100D",
",.	c #F63E3E",
"'.	c #F93131",
").	c #F84747",
"!.	c #F84D4D",
"~.	c #F93A3A",
"{.	c #F76565",
"].	c #F7FFFF",
"^.	c #DBDFDF",
"/.	c #5A2927",
"(.	c #E70C0B",
"_.	c #F40D0C",
":.	c #C00908",
"<.	c #200100",
"[.	c #252522",
"}.	c #F1D1D0",
"|.	c #F5ABAB",
"1.	c #F59292",
"2.	c #F75C5C",
"3.	c #FA1C1C",
"4.	c #F3D9D9",
"5.	c #FA9A9A",
"6.	c #F37D7D",
"7.	c #3A3F3B",
"8.	c #D24444",
"9.	c #FF0606",
"0.	c #FF0C0C",
"a.	c #BA0A0A",
"b.	c #120000",
"c.	c #090D09",
"d.	c #F6F8F8",
"e.	c #F69191",
"f.	c #F76868",
"g.	c #F4C7C7",
"h.	c #F7ACAC",
"i.	c #D09F9E",
"j.	c #580401",
"k.	c #2A0300",
"l.	c #5A3330",
"m.	c #E06767",
"n.	c #DD3535",
"o.	c #581916",
"p.	c #292F2C",
"q.	c #272A27",
"r.	c #828382",
"s.	c #FF2E2E",
"t.	c #FA1515",
"u.	c #F59797",
"v.	c #F7AAAA",
"w.	c #FF2222",
"x.	c #FF0000",
"y.	c #FBD0D0",
"z.	c #F3FAFA",
"A.	c #F3F9F9",
"B.	c #FE9595",
"C.	c #FF5556",
"D.	c #FF9696",
"E.	c #FBAAAA",
"F.	c #F91C1C",
"G.	c #F3D2D2",
"H.	c #F75656",
"I.	c #F83C3C",
"J.	c #F4C9C9",
"K.	c #F2F0F0",
"L.	c #F92F2F",
"M.	c #FA2727",
"N.	c #F3E5E5",
"O.	c #F3DADA",
"P.	c #F85F5F",
"Q.	c #F5A5A5",
"R.	c #F2E5E5",
"S.	c #F85454",
"T.	c #F77070",
"U.	c #F5A7A7",
"V.	c #F75353",
"W.	c #F5A9A9",
"X.	c #F3D4D4",
"Y.	c #F76B6B",
"Z.	c #F84343",
"`.	c #F93737",
" +	c #F68686",
".+	c #F5AFAF",
"          . + @ # $ %           ",
"      & * = - ; > , ' ) !       ",
"    $ ~ { ] ^ / ( _ : < [ }     ",
"  | 1 2 3 4 5 6 7 8 9 0 a b c   ",
"  d e f g h i j k l m n o p q   ",
"r 1 s t u h v w x y z A c B C D ",
"E F ! G H I J K L M N O P Q R S ",
"T U | V - W X Y Z y `  ...+.s q ",
"@.U #.$.%.&.*.=.-.;.>.,.'.V o ).",
"!.~.{.].^./.(._.:.<.[.}.|.B 1.2.",
"3.4.5.6.7.8.9.0.a.b.c.d.e.U f.g.",
"  h.i.j.k.l.m.n.o.p.q.r.s.t.u.  ",
"  & v.w.x.y.z.A.B.C.D.E.F.~ G.  ",
"    b H.I.J.K.G.L.U M.N.O.P.    ",
"      Q.R.S.T.U.V.'.W.X.Y.      ",
"          Z.`.@. +p .+          "};
