/* XPM */
static char * bitcoin64_xpm[] = {
"64 64 580 2",
"  	c None",
". 	c #FA1717",
"+ 	c #F77272",
"@ 	c #F4BEBE",
"# 	c #F4B9B9",
"$ 	c #F2EDED",
"% 	c #F3DFDF",
"& 	c #F67878",
"* 	c #FA1212",
"= 	c #FA0D0D",
"- 	c #FA0C0C",
"; 	c #F84747",
"> 	c #F67676",
", 	c #F2E1E1",
"' 	c #F76B6B",
") 	c #F93737",
"! 	c #F76868",
"~ 	c #F5ACAC",
"{ 	c #F2FEFE",
"] 	c #F2F0F0",
"^ 	c #F4BBBB",
"/ 	c #F75B5B",
"( 	c #FA1818",
"_ 	c #FA0303",
": 	c #FA0E0E",
"< 	c #FA0909",
"[ 	c #F68383",
"} 	c #F5ADAD",
"| 	c #F67272",
"1 	c #F75A5A",
"2 	c #F93838",
"3 	c #F85252",
"4 	c #F68585",
"5 	c #F3D8D8",
"6 	c #F1FFFF",
"7 	c #F2FDFD",
"8 	c #F3D1D1",
"9 	c #F77777",
"0 	c #FA1919",
"a 	c #FA0606",
"b 	c #F59A9A",
"c 	c #F2F8F8",
"d 	c #F2FCFC",
"e 	c #F4C2C2",
"f 	c #F77474",
"g 	c #F67B7B",
"h 	c #F5A5A5",
"i 	c #F84B4B",
"j 	c #FA1515",
"k 	c #F84545",
"l 	c #F76A6A",
"m 	c #F68B8B",
"n 	c #F68C8C",
"o 	c #F76161",
"p 	c #FB0000",
"q 	c #FA0404",
"r 	c #FA0808",
"s 	c #FA0B0B",
"t 	c #F68D8D",
"u 	c #F2F2F2",
"v 	c #F2F1F1",
"w 	c #F2F6F6",
"x 	c #F4BFBF",
"y 	c #FA1B1B",
"z 	c #F92424",
"A 	c #F59393",
"B 	c #FA0F0F",
"C 	c #FA1111",
"D 	c #F2E6E6",
"E 	c #F3D5D5",
"F 	c #F3CFCF",
"G 	c #F3CCCC",
"H 	c #F67979",
"I 	c #F84E4E",
"J 	c #FA2020",
"K 	c #FB0202",
"L 	c #FA0101",
"M 	c #F85050",
"N 	c #F3D6D6",
"O 	c #F84141",
"P 	c #F83A3A",
"Q 	c #F4AEAE",
"R 	c #F2F5F5",
"S 	c #F3D7D7",
"T 	c #FA0A0A",
"U 	c #F84646",
"V 	c #F3EBEB",
"W 	c #F2F3F3",
"X 	c #F2EEEE",
"Y 	c #F2ECEC",
"Z 	c #F3E1E1",
"` 	c #F67777",
" .	c #F85656",
"..	c #F59090",
"+.	c #F2F4F4",
"@.	c #F84242",
"#.	c #F3DBDB",
"$.	c #F94343",
"%.	c #F93C3C",
"&.	c #F3EEEE",
"*.	c #F93F3F",
"=.	c #F5AEAE",
"-.	c #F2EAEA",
";.	c #F2E8E8",
">.	c #F76767",
",.	c #FA0707",
"'.	c #F69797",
").	c #F2F7F7",
"!.	c #F59898",
"~.	c #F4BABA",
"{.	c #F92D2D",
"].	c #FA0505",
"^.	c #F93B3B",
"/.	c #F4AAAA",
"(.	c #F91E1E",
"_.	c #FA0000",
":.	c #FA1414",
"<.	c #F76565",
"[.	c #F59C9C",
"}.	c #F75F5F",
"|.	c #FA1313",
"1.	c #F93939",
"2.	c #F2FBFB",
"3.	c #F4CACA",
"4.	c #F92828",
"5.	c #F92929",
"6.	c #F4C0C0",
"7.	c #F75C5C",
"8.	c #F5A2A2",
"9.	c #F83B3B",
"0.	c #FB0101",
"a.	c #F68282",
"b.	c #F2EFEF",
"c.	c #F3E4E4",
"d.	c #F93131",
"e.	c #F4B6B6",
"f.	c #F67F7F",
"g.	c #F2E9E9",
"h.	c #F3D0D0",
"i.	c #F76262",
"j.	c #F3D9D9",
"k.	c #F59797",
"l.	c #F2E2E2",
"m.	c #F3E2E2",
"n.	c #FC0E0E",
"o.	c #FF0E0F",
"p.	c #FF0F0F",
"q.	c #FF0E0E",
"r.	c #FF1616",
"s.	c #F2E7E7",
"t.	c #F3D2D2",
"u.	c #F69C9C",
"v.	c #F68989",
"w.	c #F2F9F9",
"x.	c #F3E3E3",
"y.	c #F5A9A9",
"z.	c #F85454",
"A.	c #F92222",
"B.	c #FD0E0E",
"C.	c #DC0D0D",
"D.	c #590806",
"E.	c #050400",
"F.	c #0D0400",
"G.	c #9E1413",
"H.	c #FF9B9B",
"I.	c #F67575",
"J.	c #FA1F1F",
"K.	c #F4B4B4",
"L.	c #F93535",
"M.	c #F84040",
"N.	c #F2EBEB",
"O.	c #F3C8C8",
"P.	c #F76E6E",
"Q.	c #F84F4F",
"R.	c #F92121",
"S.	c #FA1C1C",
"T.	c #F5A6A6",
"U.	c #F68787",
"V.	c #FA0202",
"W.	c #FB0E0E",
"X.	c #7E0907",
"Y.	c #060400",
"Z.	c #010400",
"`.	c #000400",
" +	c #1E0F0C",
".+	c #C69998",
"++	c #F6F8F8",
"@+	c #F92B2B",
"#+	c #F3CDCD",
"$+	c #F4CBCB",
"%+	c #F2FAFA",
"&+	c #F2FFFF",
"*+	c #F3ECEC",
"=+	c #F85353",
"-+	c #F4BCBC",
";+	c #F4C5C5",
">+	c #F3D3D3",
",+	c #F3E0E0",
"'+	c #F90E0E",
")+	c #BC0B0B",
"!+	c #210502",
"~+	c #000501",
"{+	c #090E0A",
"]+	c #939795",
"^+	c #F9F8F8",
"/+	c #F84444",
"(+	c #FB0303",
"_+	c #FA2424",
":+	c #F67A7A",
"<+	c #F3DEDE",
"[+	c #F92626",
"}+	c #FA2323",
"|+	c #F83D3D",
"1+	c #F76363",
"2+	c #F5A4A4",
"3+	c #F69393",
"4+	c #E50D0D",
"5+	c #3E0704",
"6+	c #0B0E0A",
"7+	c #979796",
"8+	c #F76464",
"9+	c #F84343",
"0+	c #830907",
"a+	c #F91C1C",
"b+	c #F67D7D",
"c+	c #F92020",
"d+	c #F3CBCB",
"e+	c #F3DADA",
"f+	c #FD0404",
"g+	c #A30C0A",
"h+	c #F92E2E",
"i+	c #F77373",
"j+	c #F3F3F3",
"k+	c #EAEAEA",
"l+	c #000000",
"m+	c #F69191",
"n+	c #F5AAAA",
"o+	c #F3F2F2",
"p+	c #F5F4F4",
"q+	c #353734",
"r+	c #000200",
"s+	c #979694",
"t+	c #F9F9FA",
"u+	c #F5A8A8",
"v+	c #F91F1F",
"w+	c #F92A2A",
"x+	c #F58F8F",
"y+	c #FA1010",
"z+	c #FCFBFB",
"A+	c #7A7B79",
"B+	c #000100",
"C+	c #0B0805",
"D+	c #995756",
"E+	c #FCB2B2",
"F+	c #F93434",
"G+	c #F59B9B",
"H+	c #F2E3E3",
"I+	c #F75858",
"J+	c #F76666",
"K+	c #B2B2B1",
"L+	c #0D100C",
"M+	c #070A06",
"N+	c #2A2C29",
"O+	c #0C0400",
"P+	c #9C0200",
"Q+	c #FF1212",
"R+	c #F4C8C8",
"S+	c #F4B5B5",
"T+	c #F6F5F5",
"U+	c #E1E0E0",
"V+	c #3E403D",
"W+	c #6C6D6B",
"X+	c #999998",
"Y+	c #0C0501",
"Z+	c #9C0B09",
"`+	c #FF0D0D",
" @	c #F92727",
".@	c #F84C4C",
"+@	c #F68080",
"@@	c #F59999",
"#@	c #E3E2E2",
"$@	c #515350",
"%@	c #333532",
"&@	c #E6E5E5",
"*@	c #A9A9A8",
"=@	c #9C0A09",
"-@	c #FA1616",
";@	c #F93333",
">@	c #F0EFEF",
",@	c #9C9D9B",
"'@	c #B9B9B8",
")@	c #F4F3F3",
"!@	c #A8A8A7",
"~@	c #F4C1C1",
"{@	c #F77575",
"]@	c #F68F8F",
"^@	c #F3DDDD",
"/@	c #FB0404",
"(@	c #F67C7C",
"_@	c #CDCCCC",
":@	c #3A3C39",
"<@	c #70716F",
"[@	c #EAE9E9",
"}@	c #090401",
"|@	c #960A09",
"1@	c #F83E3E",
"2@	c #F4AFAF",
"3@	c #F77070",
"4@	c #F3C9C9",
"5@	c #F4ADAD",
"6@	c #F4F8F8",
"7@	c #3F413E",
"8@	c #4C4D4B",
"9@	c #730906",
"0@	c #F3E6E6",
"a@	c #F68A8A",
"b@	c #F76F6F",
"c@	c #FCFDFD",
"d@	c #7F807E",
"e@	c #1D201C",
"f@	c #760907",
"g@	c #F59696",
"h@	c #F4C3C3",
"i@	c #F76C6C",
"j@	c #FEFFFF",
"k@	c #A5A5A4",
"l@	c #131612",
"m@	c #686967",
"n@	c #FAF9F9",
"o@	c #F3D4D4",
"p@	c #F5B0B0",
"q@	c #FA8888",
"r@	c #C6D0CF",
"s@	c #252824",
"t@	c #494B48",
"u@	c #DCDCDB",
"v@	c #F85151",
"w@	c #F3E5E5",
"x@	c #F3C7C7",
"y@	c #F93232",
"z@	c #FA1D1D",
"A@	c #FBA9A9",
"B@	c #757E7B",
"C@	c #E1E1E0",
"D@	c #F2E4E4",
"E@	c #F4B7B7",
"F@	c #F96565",
"G@	c #9B0100",
"H@	c #000703",
"I@	c #C49E9D",
"J@	c #F7DBDB",
"K@	c #F4E8E8",
"L@	c #F3F6F6",
"M@	c #F3F4F4",
"N@	c #F2E5E5",
"O@	c #FA1A1A",
"P@	c #F4F0F0",
"Q@	c #DE2828",
"R@	c #2E0200",
"S@	c #000300",
"T@	c #130400",
"U@	c #C81B1A",
"V@	c #EA3939",
"W@	c #E86E6D",
"X@	c #E5AFAF",
"Y@	c #E5C6C5",
"Z@	c #E4E0DF",
"`@	c #E5E4E4",
" #	c #9E9E9D",
".#	c #E6CFCF",
"+#	c #590000",
"@#	c #020400",
"##	c #280400",
"$#	c #480300",
"%#	c #480100",
"&#	c #470F0C",
"*#	c #462A27",
"=#	c #454441",
"-#	c #464845",
";#	c #30332F",
">#	c #F93636",
",#	c #FDFCFC",
"'#	c #746F6D",
")#	c #F4B1B1",
"!#	c #F8F7F7",
"~#	c #BCBCBB",
"{#	c #010401",
"]#	c #130602",
"^#	c #3B0704",
"/#	c #380704",
"(#	c #340603",
"_#	c #760705",
":#	c #FF0C0C",
"<#	c #F4BDBD",
"[#	c #D3D3D2",
"}#	c #434542",
"|#	c #150501",
"1#	c #A90B09",
"2#	c #F10E0D",
"3#	c #744744",
"4#	c #FF7676",
"5#	c #F75959",
"6#	c #F91D1D",
"7#	c #F92323",
"8#	c #F4B3B3",
"9#	c #595B58",
"0#	c #100501",
"a#	c #9B0A09",
"b#	c #EA0D0D",
"c#	c #727775",
"d#	c #FBFFFF",
"e#	c #F5A3A3",
"f#	c #F68484",
"g#	c #F77979",
"h#	c #F59E9E",
"i#	c #A2A2A1",
"j#	c #0E100D",
"k#	c #6C0806",
"l#	c #F20E0E",
"m#	c #727471",
"n#	c #FCFAFB",
"o#	c #F68181",
"p#	c #F75757",
"q#	c #C8C8C7",
"r#	c #151814",
"s#	c #120501",
"t#	c #E10D0D",
"u#	c #FE0E0E",
"v#	c #F5A0A0",
"w#	c #F4CFCF",
"x#	c #E7E6E6",
"y#	c #17201C",
"z#	c #B10F0D",
"A#	c #EE0D0D",
"B#	c #777876",
"C#	c #FEFDFD",
"D#	c #F3CACA",
"E#	c #F59D9D",
"F#	c #FA2626",
"G#	c #ADADAC",
"H#	c #674B4A",
"I#	c #F21616",
"J#	c #AF0B0A",
"K#	c #353834",
"L#	c #D2D1D1",
"M#	c #F67E7E",
"N#	c #F77171",
"O#	c #F86060",
"P#	c #F1F1F1",
"Q#	c #434B48",
"R#	c #E1A7A7",
"S#	c #FB1B1B",
"T#	c #AA0B0A",
"U#	c #D1D0D0",
"V#	c #F4CCCC",
"W#	c #F87C7C",
"X#	c #F8BABA",
"Y#	c #C0B8B7",
"Z#	c #1F221E",
"`#	c #848D8B",
" $	c #FEACAC",
".$	c #580805",
"+$	c #343733",
"@$	c #F92F2F",
"#$	c #FD0909",
"$$	c #AD1513",
"%$	c #2E1C19",
"&$	c #45514E",
"*$	c #E67676",
"=$	c #FB1212",
"-$	c #D70D0C",
";$	c #1D1F1C",
">$	c #C7C7C6",
",$	c #F84949",
"'$	c #780907",
")$	c #1D0400",
"!$	c #000905",
"~$	c #7D2927",
"{$	c #FF3A3A",
"]$	c #FF0505",
"^$	c #FC0808",
"/$	c #DD0D0D",
"($	c #3D0703",
"_$	c #6F716E",
":$	c #F7F6F6",
"<$	c #F3CECE",
"[$	c #F1FDFD",
"}$	c #FF6566",
"|$	c #EE0E0E",
"1$	c #850907",
"2$	c #140501",
"3$	c #070400",
"4$	c #080400",
"5$	c #362320",
"6$	c #967573",
"7$	c #F35757",
"8$	c #FF2525",
"9$	c #8C0A08",
"0$	c #030501",
"a$	c #050804",
"b$	c #474946",
"c$	c #E4E4E3",
"d$	c #FFFFFF",
"e$	c #F4A9A9",
"f$	c #FB0B0B",
"g$	c #323531",
"h$	c #131511",
"i$	c #ADAFAE",
"j$	c #FAE4E4",
"k$	c #F59494",
"l$	c #F80C0C",
"m$	c #940A08",
"n$	c #1E1613",
"o$	c #FF7373",
"p$	c #F92C2C",
"q$	c #F5A1A1",
"r$	c #F4FAFA",
"s$	c #DC9595",
"t$	c #CE0E0D",
"u$	c #CE0D0C",
"v$	c #CE0000",
"w$	c #C99695",
"x$	c #C7C9C8",
"y$	c #CBCACA",
"z$	c #E3A2A1",
"A$	c #C96463",
"B$	c #CC4746",
"C$	c #CD2827",
"D$	c #CC5E5D",
"E$	c #C7CAC9",
"F$	c #C7C8C7",
"G$	c #C7C7C7",
"H$	c #CF8A8A",
"I$	c #FE0000",
"J$	c #F59595",
"K$	c #F5E0E0",
"L$	c #F8C0C0",
"M$	c #F6F7F7",
"N$	c #F6FDFD",
"O$	c #F6FFFF",
"P$	c #FA9091",
"Q$	c #FA9393",
"R$	c #F9B7B7",
"S$	c #F8C5C6",
"T$	c #F7E0E0",
"U$	c #F6FBFB",
"V$	c #F6FCFC",
"W$	c #F6FAFA",
"X$	c #F6F9F9",
"Y$	c #F6F5F6",
"Z$	c #FD4343",
"`$	c #F68686",
" %	c #FA2121",
".%	c #F59191",
"+%	c #F4ABAB",
"@%	c #F1FEFE",
"#%	c #F75656",
"$%	c #F92525",
"%%	c #F3EAEA",
"&%	c #F76D6D",
"*%	c #F4CECE",
"=%	c #F84A4A",
"-%	c #FA1E1E",
";%	c #F68E8E",
">%	c #F5ABAB",
",%	c #F3E9E9",
"'%	c #F4C4C4",
")%	c #F67373",
"!%	c #F68888",
"~%	c #F4CDCD",
"{%	c #F77B7B",
"]%	c #F5A7A7",
"^%	c #F76969",
"/%	c #FA2929",
"(%	c #F83C3C",
"_%	c #F59F9F",
":%	c #F4C7C7",
"<%	c #F75E5E",
"[%	c #F75D5D",
"}%	c #F93030",
"                                                  . + @ # $ % & * = - ; > , '                                                   ",
"                                            ) ! ~ % { ] ^ / ( _ : : : < ( [ } | 1 2                                             ",
"                                      ( 3 4 5 6 6 7 8 9 0 a - : : : = 0 b c c d { e } f g                                       ",
"                                  h i j k l & m n h o * p q r s : : : t d u v v v w x y z * :                                   ",
"                              w u A 0 : s < B C i D E F G H I J K L M c v v v v v u N O r : : P Q                               ",
"                            R S M C : : : : T U V W v v v X $ Y Z `  ...{ R +.u v u S @.< : : B o 6                             ",
"                        v v #.$.s : : : : - %.&.u v v v v v v u +.*.s r - *.& =.Z -.;.>.,.: : = 0 '.).!.                        ",
"                      v u ~.{.].: : : : a ^.v u v v v v v v v R /.(.: : = T ]._.:.<.[.}.|.< s = r 1.N 2.9                       ",
"                    v +.3.4.a : : : : < 5.6.v v v v v v v v u Z k r : : : : : : - a p 7.8.}.9.|.q 0.a.$ b.n                     ",
"                  v u c.d.a : : : : = |.!.R v v v v v v v v ).e.y = : : : : : : : : r f.6 g.h.} i.. _ j.u Y k.                  ",
"                l.+.6 2 T : : : : : B <.W u v v v v v v v v m./ r : : : : : n.o.p.q.r.k.c u W W s.t.u.v.6 w.x.}.                ",
"              y.^ j.z.= = = : : : : A.E R v v v v v v v v v G * - : : : : B.C.D.E.F.G.H.c v v v v v 2.I.J.m ).K.L.              ",
"            z ,.p M.N.O.n P.Q.{.R.S.T.R W W u u v v v v v b.U.V.: : : : W.: X.Y.Z.`. +.+++v v v v v +.8 B ].@+#+1               ",
"            s s 4.$+R R %+d &+6 *+4 =+4 -+;+>+;.u ).+.u v ,+y - : : : : '+)+!+~+Z.Z.{+]+^+v v v v v v { /+s T (+_+L.            ",
"          s : B :+u v v v v v W <+[+a V.s }+|+1+` 2+F -.6 3+p B : : : W.4+5+`.Z.Z.Z.6+7+^+v v v v v v c P.r : : _ :+^           ",
"        y : - d.,++.v v v v v 6 8+- : : = - T r ,.0 L.9+>.I (.p q < : n.0+`.`.Z.Z.Z.6+7+^+v v v v v v R T.q : : - a+j.;.        ",
"        0 : C b+d v v v v v w e c+: : : : : : : : = - - q d+e+~ b+/+f+g+`.`.Z.Z.Z.Z.6+7+^+v v v v v v +.K._ : : : < ' d         ",
"      (.= : h+6 v v v v v v d i+C : : : : : : : : : : T |+w v v v j+k+l+Z.Z.Z.Z.Z.Z.6+7+^+v v v v v v v X p : : : : :.+.u       ",
"      |.: T m+w.v v v v v W <+^.- : : : : : : : : : : L n+W v v o+p+q+r+Z.Z.Z.Z.Z.Z.6+s+t+u v v v v v v X V.: : : : * u+w.      ",
"    v+= - w+X u v v v v v w x+y+: : : : : : : : : : = : <+v v v z+A+r+B+Z.Z.Z.Z.Z.Z.C+D+E+S ] w.w u v v b.F+T : : : B 3 %+u     ",
"    v+= V.G+w v v v v v u H+I+,.: : : : : : : : : : ].J+Y v v z+K+L+M+N+B+Z.Z.Z.Z.Z.O+P+Q+/+l x+-+u 7 ).u & q : : : : 4.j.+.    ",
"    * - B <+u v v v v v W R+}+- : : : : : : : : : : (+S+v v T+U+V+l+W+X+l+Z.Z.Z.Z.Z.Y+Z+`+T r C  @.@+@e.N.@@_.: : : : A.# w     ",
"  c+= < @.$ v v v v v v X t q : : : : : : : : : : s [+#+u v #@$@l+%@&@*@l+Z.Z.Z.Z.Z.Y+=@q.: : : = : |.0 R.v.= q - : : -@x+w.W   ",
"  * C q !.b.v v v v v v Z ;@T : : : : : : : : : : ,.1 m.v >@,@l+l+'@)@!@l+Z.Z.Z.Z.Z.Y+=@q.: : : : : : : B @@w e F+y+y+B > 7 5   ",
"  h.~@{@]@@ ^@g.W +.W v t./@= : : : : : : : : : : a (@b.)@_@:@l+<@[@)@!@l+Z.Z.Z.Z.Z.}@|@q.: : : : : : : B !.%++.6 -+(@z >.&+R   ",
"1@7 7 2@:.p M.3@@@S+4@d m+p = : : : : : : : : : = y 5@6@[@7@l+8@#@p+)@!@l+Z.Z.Z.Z.Z.`.9@o.: : : : : : : B !.w.v v ).d b.u+3.] 0@",
"8.R %+a@j : < ].q 0 ;@b@{@5.T _ < : : : : : : : s @.#.c@d@l+e@'@o+v )@!@l+Z.Z.Z.Z.Z.`.f@o.: : : : : : : B g@w.v v v v R F k f h@",
"~@+.6 i@s : : : : = - L m.h.R+b+L.p L ,.- : : : < I+j@k@l@B+m@n@o+v )@!@l+Z.Z.Z.Z.Z.`.f@o.: : : : : : : y+T.c v v v v W o@1@s 1@",
"^ ).j.@.s : : : : : s M.2.u u $ s.m.p@l y a T = |.q@r@s@B+t@u@p+v v )@!@l+Z.Z.Z.Z.Z.`.f@o.: : : : : : : C %+v v v v v u H+v@r 5.",
"w@R x@y@- : : : : : < i.w.v v v v v W w Y S++@y@z@A@B@`.`.C@p+v v v )@!@l+Z.Z.Z.Z.Z.`.f@o.: : : : : : : |.6 v v v v v u D@3 T = ",
"0@R E@z - : : : : : a a@w v v v v v v v u w w.d F@G@H@l+I@J@K@L@M@o+p+*@l+Z.Z.Z.Z.Z.`.f@o.: : : : : : s .@d v v v v v u N@3 T : ",
"u R 5@O@= : : : : : _ @ +.v v v v v v v v v v P@Q@R@S@T@U@V@W@X@Y@Z@`@ #l+Z.Z.Z.Z.Z.`.f@o.: : : : : : T }.%+v v v v v W #.; T : ",
"u R Q y = : : : : : p <+u v v v v v v v v v u .#+#`.Z.@###$#%#&#*#=#-#;#l+Z.Z.Z.Z.Z.`.f@o.: : : : : : ,.m c v v v v v W d+>#s : ",
"0@w Q y = : : : : s [+] v v v v v v v v v v ,#'#l+`.`.`.`.`.`.S@B+l+l+B+@#Z.Z.Z.Z.Z.`.f@o.: : : : : : ].)#R v v v v v W F P s : ",
"w@w Q y = : : : : a J+] v v v v v v v v v !#~#{#`.]#^#/#/#/#/#/#/#/#/#(#`.Z.Z.Z.Z.Z.`._#:#- : : : : : V.x.u v v v v v R n+* = - ",
"<#w.Q y = : : : : ].l ] v v v v v v v v T+[#}#S@|#1#p.q.q.q.q.q.q.q.q.2#S@Z.Z.Z.Z.Z.l+3#4#5#6#O@j B T 7#+.v v v v v v R b V.T /+",
"x g.8#y = : : : : _ a@] v v v v v v v o+T+9#r+0#a#p.'+: : : : : : : : b#S@Z.Z.Z.Z.Z.l+c#d#7 6 D@e#z.@+f#X ).W u v v v N.g#].= v+",
"y <.b+j - : : : : L h#] v v v v v v v !#i#j#S@k#l#W.: : : : : : : : : b#S@Z.Z.Z.Z.Z.l+m#n#v v W w.7 w@o#{@h t.W 7 c +.c.}.,.- d.",
"s < 0 p#C _ < : : L [.] v v v v v v T+q#r#l+s#t#u#: : : : : : : : : : b#S@Z.Z.Z.Z.Z.l+m#n#v v v v u w.5.a j 9.z.f v##.D@ @q a b+",
"  : q G+w#[ ) p s L [.] v v v v v v x#t@l+y#z#B.: : : : : : : : : : : A#S@Z.Z.Z.Z.Z.l+B#C#v v v v R D#6#: = - T B y w+7.E#k F#  ",
"  : q v.] b.X d+1@].E#W v v v v v v G#l+l+H#I#: : : : : : : : : : : n.J#S@Z.Z.Z.Z.Z.B+K#L#)@v v v d M#|.: : : : : : C @@c X $   ",
"  : a N#g.v v W 2.).k O#D@D@Y u P#U+l+l+Q#R#S#: : : : : : : : : : : n.T#S@Z.Z.Z.Z.Z.l+%@U#)@v v W x.%.- : : : : : : :.N +.W V#  ",
"    r M ,+v v v v 6 {.,.L |+W#X#Y#Z#r+l+`# $. : : : : : : : : : : : q..$`.Z.Z.Z.Z.Z.l++$L#)@v v ).8#7#= : : : : : = @$6 v $     ",
"    < L.e+v v v v 6 {.: : #$K $$%$l+Z.l+&$*$=$: : : : : : : : : : q.-$S@@#Z.Z.Z.Z.Z.B+;$>$p+v v u b+= : : : : : : ].b ).u N@    ",
"    - T ~@v v v v 6 ,$n.o.l#'$)$B+Z.Z.Z.!$~${$]$^$s : : : : : W.p./$($`.Z.Z.Z.Z.Z.Z.Z.l+_$:$)@u <$;@T : : : : : - 7#u v X h.    ",
"      ].J+X v v v [$}$|$1$2$3$Z.Z.Z.Z.Z.S@4$5$6$7$8$_.a - : q.'+9$!+0$Z.Z.Z.Z.Z.Z.Z.Z.S@a$b$c$d$e$q : : : : : : V.M#+.v N.      ",
"      = f$N.v v v d$g$Z.Z.`.`.`.`.`.`.`.`.S@Z.Z.h$i$j$k$d.l$m$`.Z.`.`.S@S@S@S@S@S@S@S@S@S@S@Z.n$o$a : : : : : T p$D@v u Z       ",
"        V.q$R v v r$s$t$u$u$u$u$u$u$u$u$v$w$x$>$y$&@j+w { o@z$A$B$C$D$x$E$x$F$G$>$>$>$>$>$>$G$H$I$: : : : : : _ J$b.v N.        ",
"        6#z ;.u v +.K$q.q.q.q.q.q.q.q.`+q.L$M$T+T+o+v v v +.6@N$O$O$P$Q$R$S$T$U$V$W$X$M$Y$T+U$Z$< : : : : : T 5.h.u ] 4@        ",
"          v@`$6 v v 6 w+= : : : : : : T 1@o@u v v v v v v v v v +.,+6#V.]. %.@` E## <$Y 7 2.n+(+= : : : : = C .%v v +.          ",
"            +%@@2.w.%+| < : : : : : : < /+S u v v v v v v v v v @%g#y+: : - < ]..  @y@@.#%e.z.$%- p V.].a : .@,+W W             ",
"            ;.m+4.8.c n+a : : : : : : < @.N u v v v v v v v v W %%>#: : : : : : = = = - p 8#m.% ^@x G++ &%j *%6 c u             ",
"              o@=%V.v@t ,.B : : : : : r z.% u v v v v v v v v ).y.-%: : : : : : : : : ,.#%D@v v v v u u v ;%_.T p$              ",
"                e.h+< a F#/ [+0 - - = a + b.v v v v v v v v u Y 3 r : : : : : : : : - S.e +.v v v v v ).>%p B -                 ",
"                  k$O@= {.7 ,%E##%P y p `$%+v v v v v v v v R '%@+- : : : : : : : = B t w v v v v v ).'%:.: :                   ",
"                    )%y+* b+{ %+W >+n+3@@@6 d c v v v v v v ;.b@< : : : : : : : : : <.s.W v v v v w.e.}+- :                     ",
"                      !%q {.~%w u +.w +.f#/+{%]%6 d ).+.v u 8 |.- : : : : : : : T |+,+R v v v v 7 e.5.= :                       ",
"                        ^%r ! 0@u v v %+` ].* -@4.&%h N c u a._ : : : : : : : T /%Z W v v v v v y._+-                           ",
"                            p [.] v v c [.( : : : - s ].P G+5#7#|.|.* : : : - p$u v v v v v $ b p :                             ",
"                              (%e v W w._%0 : : : : : = * x 6 6 D@~.v#y@L.z >#*%-.N.] +.v x.z.L B                               ",
"                                  v <#5 :%p$< : : : = p G+c v v W ).w.6 2.o#; <%I.+ f.-+N.8.[%                                  ",
"                                      M#M#.@1@L q r T <.v v v v v w d o@l R.].L p 4.(@5@D                                       ",
"                                            O.h f#9+<%N.%+R v W 6 D#n 5.T _ 0 v@k.O.                                            ",
"                                                  )%- }%+@x ).t.k :.C 5. @..s.                                                  "};
